<svg width="96" height="98" viewBox="0 0 96 98" fill="none" xmlns="http://www.w3.org/2000/svg">
<path d="M19.384 62.2734H76.495V66.68H19.384V62.2734Z" fill="#1D559F"/>
<mask id="mask0_102_768" style="mask-type:luminance" maskUnits="userSpaceOnUse" x="4" y="7" width="88" height="54">
<path d="M4.86401 7.47404H91.136V60.5622H4.86401V7.47404Z" fill="white"/>
</mask>
<g mask="url(#mask0_102_768)">
<path d="M63.527 32.4383L47.956 7.46101L32.652 32.4383L5.09598 17.7759L19.384 60.5151H76.476C76.476 60.5151 90.706 18.0716 90.93 17.6326C90.506 18.0766 63.527 32.4383 63.527 32.4383ZM48.014 21.8257L56.835 36.2535L47.975 40.9499L39.023 36.2535L48.014 21.8257ZM22.776 47.7423L17.914 33.3064L28.167 38.7115L22.776 47.7423ZM29.071 52.7664L35.252 42.676L48.02 49.6589L60.588 42.676L66.974 52.7664H29.071ZM72.684 47.9297L67.293 38.8989L77.546 33.4939L72.684 47.9297Z" fill="#1D559F"/>
</g>
<path d="M9.08064 74.5353C10.0879 74.5353 10.9856 74.6667 11.7739 74.9294C12.5621 75.1776 13.219 75.5425 13.7445 76.0242C14.2846 76.4914 14.6933 77.0607 14.9707 77.7321C15.248 78.389 15.3867 79.1335 15.3867 79.9655C15.3867 80.6224 15.2845 81.2793 15.0802 81.9362C14.8904 82.5931 14.5693 83.1916 14.1167 83.7317C13.6788 84.2718 13.0949 84.7097 12.3651 85.0454C11.6352 85.3666 10.7301 85.5272 9.64994 85.5272H7.37274V90.6508H4.19781V74.5353H9.08064ZM9.62804 82.4617C10.1098 82.4617 10.5112 82.3814 10.8323 82.2208C11.1535 82.0603 11.4016 81.8559 11.5768 81.6078C11.7666 81.3596 11.8979 81.1041 11.9709 80.8414C12.0585 80.564 12.1023 80.3086 12.1023 80.075C12.1023 79.8999 12.0731 79.6809 12.0147 79.4181C11.9709 79.1408 11.8687 78.8634 11.7082 78.5861C11.5476 78.3087 11.2994 78.0752 10.9637 77.8854C10.6426 77.6956 10.2046 77.6008 9.64994 77.6008H7.37274V82.4617H9.62804ZM12.6059 84.4324L16.591 90.6508H12.8906L8.81789 84.5199L12.6059 84.4324ZM22.985 90.9136C21.8172 90.9136 20.8246 90.6946 20.0071 90.2567C19.2043 89.8188 18.5912 89.213 18.1679 88.4393C17.7445 87.6657 17.5329 86.7752 17.5329 85.768C17.5329 84.8046 17.781 83.936 18.2774 83.1624C18.7737 82.3887 19.4378 81.7756 20.2699 81.3231C21.1019 80.856 22.0289 80.6224 23.0507 80.6224C24.4229 80.6224 25.5469 81.0239 26.4227 81.8267C27.3131 82.615 27.8897 83.7609 28.1525 85.2644L20.7078 87.6292L20.029 85.9651L25.4155 84.1477L24.7805 84.4324C24.6637 84.0528 24.4521 83.7244 24.1455 83.447C23.8536 83.1551 23.4083 83.0091 22.8098 83.0091C22.3573 83.0091 21.9559 83.1186 21.6056 83.3375C21.2698 83.5419 21.0071 83.8412 20.8173 84.2353C20.6421 84.6148 20.5545 85.0673 20.5545 85.5928C20.5545 86.1913 20.664 86.695 20.883 87.1037C21.1019 87.4978 21.4012 87.7971 21.7807 88.0014C22.1603 88.2058 22.5836 88.308 23.0507 88.308C23.3864 88.308 23.7076 88.2496 24.0141 88.1328C24.3353 88.016 24.6491 87.8627 24.9557 87.673L26.3132 89.9502C25.8023 90.2421 25.2476 90.4757 24.6491 90.6508C24.0652 90.826 23.5105 90.9136 22.985 90.9136ZM30.3801 73.3748H33.4455V90.6508H30.3801V73.3748ZM36.6025 81.0822H39.668V90.6508H36.6025V81.0822ZM36.5368 77.6883C36.5368 77.2358 36.712 76.8636 37.0623 76.5716C37.4273 76.2797 37.8141 76.1337 38.2228 76.1337C38.6316 76.1337 39.0038 76.2797 39.3395 76.5716C39.6899 76.8636 39.865 77.2358 39.865 77.6883C39.865 78.1409 39.6899 78.5131 39.3395 78.8051C39.0038 79.0824 38.6316 79.2211 38.2228 79.2211C37.8141 79.2211 37.4273 79.0824 37.0623 78.8051C36.712 78.5131 36.5368 78.1409 36.5368 77.6883ZM47.7735 95.468C46.9122 95.468 46.1824 95.3658 45.5839 95.1614C45 94.9571 44.5037 94.7089 44.0949 94.417C43.6862 94.125 43.3213 93.8477 43.0001 93.5849L44.7956 91.4829C45.1313 91.7894 45.5182 92.0814 45.9561 92.3587C46.4086 92.6507 46.9998 92.7967 47.7297 92.7967C48.2114 92.7967 48.6566 92.7091 49.0653 92.5339C49.4887 92.3733 49.8244 92.1325 50.0726 91.8113C50.3353 91.4902 50.4667 91.0888 50.4667 90.6071V88.505L50.5762 89.0524C50.3426 89.5487 49.9193 89.9867 49.3062 90.3662C48.6931 90.7311 47.8902 90.9136 46.8976 90.9136C46.0364 90.9136 45.2335 90.6946 44.4891 90.2567C43.7592 89.8042 43.1753 89.1984 42.7374 88.4393C42.2994 87.6657 42.0805 86.7898 42.0805 85.8118C42.0805 84.8046 42.314 83.9141 42.7812 83.1405C43.2483 82.3522 43.8541 81.7318 44.5985 81.2793C45.343 80.8268 46.1313 80.6005 46.9633 80.6005C47.7954 80.6005 48.5106 80.7246 49.1091 80.9728C49.7222 81.2063 50.182 81.4983 50.4886 81.8486L50.3791 82.1333L50.7075 81.0822H53.5321V90.6508C53.5321 91.5851 53.2694 92.4098 52.7439 93.1251C52.2184 93.855 51.5177 94.4243 50.6419 94.833C49.7806 95.2563 48.8245 95.468 47.7735 95.468ZM45.1678 85.7242C45.1678 86.2351 45.2846 86.695 45.5182 87.1037C45.7517 87.5124 46.0656 87.8335 46.4597 88.0671C46.8684 88.3007 47.321 88.4174 47.8173 88.4174C48.2406 88.4174 48.6128 88.3664 48.934 88.2642C49.2697 88.1474 49.5617 87.9868 49.8098 87.7825C50.0726 87.5635 50.2915 87.2934 50.4667 86.9723V84.6294C50.3353 84.3083 50.1383 84.0382 49.8755 83.8193C49.6127 83.5857 49.3062 83.4105 48.9559 83.2938C48.6201 83.1624 48.2406 83.0967 47.8173 83.0967C47.321 83.0967 46.8684 83.2135 46.4597 83.447C46.0656 83.666 45.7517 83.9725 45.5182 84.3667C45.2846 84.7608 45.1678 85.2133 45.1678 85.7242ZM56.6811 81.0822H59.7465V90.6508H56.6811V81.0822ZM56.6154 77.6883C56.6154 77.2358 56.7906 76.8636 57.1409 76.5716C57.5058 76.2797 57.8927 76.1337 58.3014 76.1337C58.7101 76.1337 59.0824 76.2797 59.4181 76.5716C59.7684 76.8636 59.9436 77.2358 59.9436 77.6883C59.9436 78.1409 59.7684 78.5131 59.4181 78.8051C59.0824 79.0824 58.7101 79.2211 58.3014 79.2211C57.8927 79.2211 57.5058 79.0824 57.1409 78.8051C56.7906 78.5131 56.6154 78.1409 56.6154 77.6883ZM62.4218 82.615C62.4218 81.5056 62.6335 80.4546 63.0568 79.4619C63.4801 78.4693 64.064 77.5935 64.8085 76.8344C65.5675 76.0607 66.4434 75.4549 67.436 75.017C68.4286 74.5791 69.4942 74.3601 70.6328 74.3601C71.7568 74.3601 72.8152 74.5791 73.8078 75.017C74.8004 75.4549 75.6762 76.0607 76.4353 76.8344C77.209 77.5935 77.8075 78.4693 78.2308 79.4619C78.6687 80.4546 78.8877 81.5056 78.8877 82.615C78.8877 83.7536 78.6687 84.8192 78.2308 85.8118C77.8075 86.8044 77.209 87.6803 76.4353 88.4393C75.6762 89.1838 74.8004 89.7677 73.8078 90.191C72.8152 90.6144 71.7568 90.826 70.6328 90.826C69.4942 90.826 68.4286 90.6144 67.436 90.191C66.4434 89.7677 65.5675 89.1838 64.8085 88.4393C64.064 87.6803 63.4801 86.8044 63.0568 85.8118C62.6335 84.8192 62.4218 83.7536 62.4218 82.615ZM65.7062 82.615C65.7062 83.3302 65.8303 84.0017 66.0784 84.6294C66.3412 85.2425 66.6988 85.7899 67.1514 86.2716C67.6185 86.7387 68.1513 87.1037 68.7498 87.3664C69.3629 87.6292 70.027 87.7606 70.7423 87.7606C71.4284 87.7606 72.0634 87.6292 72.6473 87.3664C73.2458 87.1037 73.764 86.7387 74.2019 86.2716C74.6398 85.7899 74.9829 85.2425 75.231 84.6294C75.4792 84.0017 75.6033 83.3302 75.6033 82.615C75.6033 81.8851 75.4719 81.2063 75.2091 80.5786C74.961 79.9509 74.6106 79.4035 74.1581 78.9364C73.7202 78.4547 73.202 78.0825 72.6035 77.8197C72.005 77.557 71.3554 77.4256 70.6547 77.4256C69.9541 77.4256 69.3045 77.557 68.706 77.8197C68.1075 78.0825 67.582 78.4547 67.1295 78.9364C66.6769 79.4035 66.3266 79.9509 66.0784 80.5786C65.8303 81.2063 65.7062 81.8851 65.7062 82.615ZM84.3302 81.0822L84.5711 82.7901L84.5273 82.6369C84.863 82.0384 85.3374 81.5567 85.9505 81.1917C86.5636 80.8122 87.3154 80.6224 88.2058 80.6224C89.1109 80.6224 89.8626 80.8925 90.4611 81.4326C91.0742 81.9581 91.3881 82.6442 91.4027 83.4908V90.6508H88.3372V84.6294C88.3226 84.2061 88.2058 83.8704 87.9869 83.6222C87.7825 83.3594 87.4322 83.2281 86.9359 83.2281C86.4687 83.2281 86.06 83.3813 85.7097 83.6879C85.3593 83.9944 85.0893 84.4105 84.8995 84.936C84.7098 85.4615 84.6149 86.0673 84.6149 86.7533V90.6508H81.5494V81.0822H84.3302Z" fill="#2A2A2A"/>
</svg>
